<svg id="Layer_1" data-name="Layer 1" xmlns="http://www.w3.org/2000/svg" viewBox="0 0 150 28"><defs><style>.cls-1{fill:#fff;}</style></defs><title>logo-white-1</title><path class="cls-1" d="M0,22.22V1.13H4.88V22.22ZM4.27,5.06V1.13h9.52V5.06Zm0,8.41V9.54h9v3.93Zm0,8.76V18.29H14v3.93Z"/><path class="cls-1" d="M16.47,16.09V12H29.32v4.1Z"/><path class="cls-1" d="M39.23,22.71a9.73,9.73,0,0,1-5.58-1.39,4.77,4.77,0,0,1-2.14-3.9h4.33a2.09,2.09,0,0,0,1,1.34,4.37,4.37,0,0,0,2.52.59,4.73,4.73,0,0,0,2.12-.42,1.3,1.3,0,0,0,.84-1.2,1.28,1.28,0,0,0-.64-1.11A5.55,5.55,0,0,0,39.35,16L38,15.92a8,8,0,0,1-4.53-1.59A4.19,4.19,0,0,1,32,11a4.4,4.4,0,0,1,.88-2.8A5.4,5.4,0,0,1,35.34,6.5a10.35,10.35,0,0,1,3.58-.58,9.14,9.14,0,0,1,5.22,1.34,4.62,4.62,0,0,1,2.07,3.89H41.89A2,2,0,0,0,41,9.84a3.66,3.66,0,0,0-2.17-.53,3.48,3.48,0,0,0-1.8.4,1.23,1.23,0,0,0-.67,1.1,1.11,1.11,0,0,0,.58,1,4.92,4.92,0,0,0,1.89.49l1.31.12A9.42,9.42,0,0,1,45,14a4.17,4.17,0,0,1,1.71,3.5,4.35,4.35,0,0,1-.92,2.76,5.7,5.7,0,0,1-2.59,1.79A11.33,11.33,0,0,1,39.23,22.71Z"/><path class="cls-1" d="M48.41,9.8V6.39h7.11V9.8Zm4.12-5a2.71,2.71,0,0,1-2-.68,2.37,2.37,0,0,1-.66-1.72A2.41,2.41,0,0,1,50.5.68a3.37,3.37,0,0,1,4.06,0,2.41,2.41,0,0,1,.66,1.75,2.38,2.38,0,0,1-.66,1.72A2.71,2.71,0,0,1,52.53,4.83ZM50.64,22.22V6.39h4.88V22.22Z"/><path class="cls-1" d="M60,28V6.39h3.87v6.85l-.52,0a9.05,9.05,0,0,1,1-4A6.05,6.05,0,0,1,66.9,6.75a7.39,7.39,0,0,1,3.51-.82,8,8,0,0,1,3.16.61A7.22,7.22,0,0,1,76,8.22a7.32,7.32,0,0,1,1.56,2.54A9.21,9.21,0,0,1,78.1,14v.67a9.63,9.63,0,0,1-.52,3.19,7.51,7.51,0,0,1-1.51,2.59,7,7,0,0,1-2.41,1.72,8,8,0,0,1-3.25.62A7.66,7.66,0,0,1,67,22a5.73,5.73,0,0,1-2.43-2.25,8,8,0,0,1-1-3.86l1.34,1.73V28Zm9-9.13a4,4,0,0,0,2.18-.58,3.91,3.91,0,0,0,1.45-1.62,5.31,5.31,0,0,0,.52-2.4,5.13,5.13,0,0,0-.52-2.37,3.89,3.89,0,0,0-1.43-1.57A4.1,4.1,0,0,0,69,9.77a4.55,4.55,0,0,0-2.07.49,3.85,3.85,0,0,0-2.17,3.61v1.07a3.57,3.57,0,0,0,.63,2.12A4.06,4.06,0,0,0,67,18.41,4.65,4.65,0,0,0,69,18.87Z"/><path class="cls-1" d="M89.14,22.77a9.55,9.55,0,0,1-3.77-.69,7.77,7.77,0,0,1-2.72-1.86,8.29,8.29,0,0,1-2.21-5.62V14A8.35,8.35,0,0,1,81,11a8.15,8.15,0,0,1,1.63-2.62,7.64,7.64,0,0,1,2.67-1.83A9.27,9.27,0,0,1,89,5.84,8.46,8.46,0,0,1,93.49,7a7.73,7.73,0,0,1,2.82,3,8.38,8.38,0,0,1,1,4v1.56H82.49V12.89H94.33L92.74,14.1a6.22,6.22,0,0,0-.43-2.43A3.3,3.3,0,0,0,91,10.13,3.82,3.82,0,0,0,89,9.59a4,4,0,0,0-2.17.55,3.44,3.44,0,0,0-1.34,1.6A6.5,6.5,0,0,0,85,14.33a6.55,6.55,0,0,0,.43,2.47,3.37,3.37,0,0,0,1.34,1.63,5.18,5.18,0,0,0,4.58.09,2.59,2.59,0,0,0,1.16-1.21H97a6.52,6.52,0,0,1-1.43,2.83,7.23,7.23,0,0,1-2.68,1.94A9.36,9.36,0,0,1,89.14,22.77Z"/><path class="cls-1" d="M98.51,9.77V6.39h12V9.77Zm9.61,12.66a11.71,11.71,0,0,1-4.09-.59,4.08,4.08,0,0,1-2.27-2A8.41,8.41,0,0,1,101,16V2.11h4.55v14.1a2.25,2.25,0,0,0,.63,1.72,2.49,2.49,0,0,0,1.78.59h2.47v3.9Z"/><path class="cls-1" d="M121.35,22.77a9.56,9.56,0,0,1-3.77-.69,7.79,7.79,0,0,1-2.72-1.86,8.28,8.28,0,0,1-2.21-5.62V14a8.37,8.37,0,0,1,.56-3,8.17,8.17,0,0,1,1.63-2.62,7.64,7.64,0,0,1,2.67-1.83,9.27,9.27,0,0,1,3.65-.68A8.46,8.46,0,0,1,125.7,7a7.73,7.73,0,0,1,2.82,3,8.38,8.38,0,0,1,1,4v1.56H114.7V12.89h11.84L125,14.1a6.22,6.22,0,0,0-.43-2.43,3.3,3.3,0,0,0-1.27-1.55,3.82,3.82,0,0,0-2.09-.54,4,4,0,0,0-2.17.55,3.43,3.43,0,0,0-1.34,1.6,6.5,6.5,0,0,0-.46,2.59,6.55,6.55,0,0,0,.43,2.47A3.37,3.37,0,0,0,119,18.44a5.18,5.18,0,0,0,4.58.09,2.59,2.59,0,0,0,1.16-1.21h4.48a6.52,6.52,0,0,1-1.43,2.83,7.23,7.23,0,0,1-2.68,1.94A9.36,9.36,0,0,1,121.35,22.77Z"/><path class="cls-1" d="M132.73,22.22V1.13h4.88V22.22Zm11.77,0-5.28-7.4h-2.35l6.8-8.44h5.13l-6.41,7.86.06-2.25L150,22.22Z"/></svg>