<svg id="Layer_1" data-name="Layer 1" xmlns="http://www.w3.org/2000/svg" viewBox="0 0 260 36"><defs><style>.cls-1{fill:#676f77;}.cls-2{fill:#2c8ef8;}.cls-3{fill:#727cf5;}</style></defs><title>logo-dark-1</title><path class="cls-1" d="M90.84,26.36a4.09,4.09,0,0,0-1.41-3.24,14.13,14.13,0,0,0-4.94-2.31,28.06,28.06,0,0,1-9.19-4.3,8.14,8.14,0,0,1-3.14-6.75,8.49,8.49,0,0,1,3.53-7,14.32,14.32,0,0,1,9-2.73,14.22,14.22,0,0,1,9.36,2.93,9.17,9.17,0,0,1,3.42,7.69l0,.14h-6.8a5.1,5.1,0,0,0-1.59-4,6.48,6.48,0,0,0-4.45-1.41,5.87,5.87,0,0,0-4,1.25,4.07,4.07,0,0,0-1.42,3.2,3.49,3.49,0,0,0,1.54,2.92A20.57,20.57,0,0,0,86,15.12a22.85,22.85,0,0,1,8.8,4.27,8.74,8.74,0,0,1,3,6.93,8.35,8.35,0,0,1-3.51,7.09Q90.84,36,85.07,36a16.57,16.57,0,0,1-9.7-2.81q-4.05-2.81-3.93-8.39l0-.14h6.8a5.51,5.51,0,0,0,1.83,4.57,7.69,7.69,0,0,0,5,1.47,6.76,6.76,0,0,0,4.29-1.18A3.82,3.82,0,0,0,90.84,26.36Z"/><path class="cls-1" d="M110.52,35.5h-7V.5h7Z"/><path class="cls-1" d="M124.48,22.81V35.5h-7V.5h13.39q6,0,9.49,3.08a10.31,10.31,0,0,1,3.46,8.1,10.24,10.24,0,0,1-3.46,8.07q-3.46,3.05-9.49,3.05Zm0-5.41h6.37a5.84,5.84,0,0,0,4.45-1.6,5.68,5.68,0,0,0,1.51-4.07,6,6,0,0,0-1.5-4.17,5.73,5.73,0,0,0-4.46-1.65h-6.37Z"/><path class="cls-1" d="M168.82,20.11h-13v10h15.43V35.5H148.83V.5h22.4V5.91H155.85v8.8h13Z"/><path class="cls-1" d="M200.59,5.91h-10V35.5h-7V5.91h-9.85V.5h26.87Z"/><path class="cls-1" d="M224.43,20.11h-13v10h15.43V35.5H204.44V.5h22.4V5.91H211.46v8.8h13Z"/><path class="cls-1" d="M241.4,20.88h-2.57V35.5h-7V.5h7V14.8h2L250.39.5h8.68L247,16.77,260,35.5h-8.94Z"/><circle class="cls-2" cx="42" cy="18" r="18"/><path class="cls-3" d="M21,18A20.92,20.92,0,0,1,27.58,2.78,18,18,0,1,0,18,36a17.89,17.89,0,0,0,9.58-2.78A20.92,20.92,0,0,1,21,18Z"/></svg>